<svg width="30" height="30" viewBox="0 0 30 30" fill="none" xmlns="http://www.w3.org/2000/svg">
<path fill-rule="evenodd" clip-rule="evenodd" d="M17.3882 17.1207C15.2403 19.2685 11.7579 19.2685 9.61006 17.1207C7.46217 14.9728 7.46217 11.4904 9.61006 9.34248C11.7579 7.1946 15.2403 7.1946 17.3882 9.34248C19.5361 11.4904 19.5361 14.9728 17.3882 17.1207ZM18.0488 19.1951C15.1085 21.4442 10.8851 21.2241 8.19584 18.5349C5.26691 15.6059 5.26691 10.8572 8.19584 7.92827C11.1248 4.99934 15.8735 4.99934 18.8024 7.92827C21.4916 10.6174 21.7117 14.8405 19.463 17.7808L24.813 23.1309L23.3988 24.5451L18.0488 19.1951Z" fill="#5DA56C"/>
</svg>
